<svg xmlns="http://www.w3.org/2000/svg" width="108" height="108" viewBox="0 0 108 108">
  <g id="Group_104" data-name="Group 104" transform="translate(-191 -2428)">
    <circle id="Ellipse_9" data-name="Ellipse 9" cx="54" cy="54" r="54" transform="translate(191 2428)" fill="#c72121"/>
    <g id="kettlebell" transform="translate(211 2391.726)">
      <g id="Group_24" data-name="Group 24" transform="translate(0 65.274)">
        <path id="Path_18" data-name="Path 18" d="M66.73,113.745h-3.9a15.9,15.9,0,0,0-.077-23.02L65.4,86.141A6.914,6.914,0,0,0,59.409,75.77H44.239a6.914,6.914,0,0,0-5.988,10.371L40.9,90.724a15.94,15.94,0,0,0-1.741,1.943A20.029,20.029,0,0,0,31.9,82.608l3.361-5.821a7.676,7.676,0,0,0-6.647-11.514H11.5A7.676,7.676,0,0,0,4.849,76.787l3.361,5.821a20.055,20.055,0,0,0-1.519,31.136H.992a.992.992,0,0,0,0,1.984H66.73a.992.992,0,1,0,0-1.984Zm-7.32-31.1h.02a.121.121,0,0,1,.013.018.1.1,0,0,0,.011.017.161.161,0,0,1-.01.021l-2.588,4.482a15.979,15.979,0,0,0-10.061,0L44.206,82.7a.159.159,0,0,1-.009-.018.144.144,0,0,1,.009-.02.118.118,0,0,1,.013-.018H59.409Zm-3.129-1.984H47.368V77.754h8.912ZM42.8,91.679a.992.992,0,0,0,.215-1.251l-3.048-5.279a4.93,4.93,0,0,1,4.27-7.4h1.145v2.908H44.239A2.022,2.022,0,0,0,42.488,83.7l3,5.2a.992.992,0,0,0,1.223.427,13.97,13.97,0,0,1,10.218,0,.992.992,0,0,0,1.224-.427l3-5.2a2.022,2.022,0,0,0-1.751-3.033H58.265V77.754h1.145a4.93,4.93,0,0,1,4.27,7.4l-3.048,5.279a.992.992,0,0,0,.215,1.251,13.913,13.913,0,0,1-1.152,22.065H43.954A13.913,13.913,0,0,1,42.8,91.679Zm-1.982,22.065h-7.4a20.025,20.025,0,0,0,3.956-4.831A15.852,15.852,0,0,0,40.821,113.745ZM25.33,70.795H14.783V67.258H25.33Zm-23.346,28a18.049,18.049,0,0,1,8.088-15.065.992.992,0,0,0,.31-1.322L6.567,75.8A5.692,5.692,0,0,1,11.5,67.258h1.3v3.537H11.5A2.155,2.155,0,0,0,9.63,74.027l4.047,7.01a.992.992,0,0,0,1.146.454,18.06,18.06,0,0,1,3.147-.65.992.992,0,1,0-.227-1.971,20.117,20.117,0,0,0-2.733.508l-3.662-6.343a.171.171,0,0,1,.148-.256H28.617a.171.171,0,0,1,.148.256L25.1,79.378a20.223,20.223,0,0,0-2.491-.477.992.992,0,0,0-.251,1.968,18.069,18.069,0,0,1,2.93.621.991.991,0,0,0,1.146-.454l4.047-7.01a2.155,2.155,0,0,0-1.866-3.232h-1.3V67.258h1.3A5.692,5.692,0,0,1,33.546,75.8L29.73,82.4a.992.992,0,0,0,.31,1.322,18.051,18.051,0,0,1,7.673,11.22,15.916,15.916,0,0,0-1.25,11.426,18.07,18.07,0,0,1-6.256,7.372H9.905A18.036,18.036,0,0,1,1.984,98.792Z" transform="translate(0 -65.274)"/>
        <path id="Path_19" data-name="Path 19" d="M92.844,250.063a.992.992,0,1,0,1.933-.446,10.177,10.177,0,1,0-14.764,11.24v.887a1.39,1.39,0,0,0,1.389,1.389h6.922a1.39,1.39,0,0,0,1.389-1.389v-.9a10.2,10.2,0,0,0,4.926-6.1.992.992,0,1,0-1.906-.551,8.184,8.184,0,0,1-3.168,4.416,1.389,1.389,0,0,0-1.24-.767H81.4a1.389,1.389,0,0,0-1.243.774,8.191,8.191,0,1,1,12.685-8.553ZM82,259.826h5.732v1.323H82Z" transform="translate(-64.807 -218.395)"/>
        <path id="Path_20" data-name="Path 20" d="M113.508,295.98a.992.992,0,0,0,.992-.992v-6.465a.992.992,0,0,0-.992-.992h-1.714a.992.992,0,1,0,0,1.984h.722v5.473A.992.992,0,0,0,113.508,295.98Z" transform="translate(-96.146 -258.133)"/>
        <path id="Path_21" data-name="Path 21" d="M146.847,290.548v2.416a3.017,3.017,0,1,0,6.033,0v-2.416a3.017,3.017,0,0,0-6.033,0Zm4.049,0v2.416a1.033,1.033,0,1,1-2.065,0v-2.416a1.033,1.033,0,0,1,2.065,0Z" transform="translate(-127.424 -258.133)"/>
        <path id="Path_22" data-name="Path 22" d="M119.624,216.484h6.746a.992.992,0,0,0,0-1.984h-6.746a.992.992,0,0,0,0,1.984Z" transform="translate(-102.941 -194.762)"/>
        <path id="Path_23" data-name="Path 23" d="M334.35,296.276a8.785,8.785,0,0,0,8.235-5.772.992.992,0,0,0-1.865-.677,6.776,6.776,0,1,1,.181-4.039.992.992,0,1,0,1.919-.5,8.759,8.759,0,1,0-8.47,10.992Z" transform="translate(-282.526 -250.521)"/>
        <path id="Path_24" data-name="Path 24" d="M373.493,318.833a1.443,1.443,0,0,1-1.315-.589.992.992,0,0,0-1.6,1.168,3.4,3.4,0,0,0,2.769,1.412c.112,0,.224-.005.337-.016a3.43,3.43,0,1,0-1.2-6.733v-.708h2.731a.992.992,0,1,0,0-1.984h-3.723a.992.992,0,0,0-.992.992v2.591a1.387,1.387,0,0,0,2.1,1.189,1.447,1.447,0,0,1,2.183,1.407A1.459,1.459,0,0,1,373.493,318.833Z" transform="translate(-321.394 -278.83)"/>
      </g>
    </g>
  </g>
</svg>
