<svg xmlns="http://www.w3.org/2000/svg" width="108" height="108" viewBox="0 0 108 108">
  <g id="Group_88" data-name="Group 88" transform="translate(-791 -2665)">
    <circle id="Ellipse_12" data-name="Ellipse 12" cx="54" cy="54" r="54" transform="translate(791 2665)" fill="#c72121"/>
    <g id="tag" transform="translate(822.174 2689.438)">
      <path id="Path_33" data-name="Path 33" d="M100.012,252.02a2,2,0,0,1,2,2,1,1,0,0,0,2,0,4.008,4.008,0,0,0-3.006-3.866v-1.144a1,1,0,1,0-2,0v1.144a4,4,0,0,0,1,7.874,2,2,0,1,1-2,2,1,1,0,1,0-2,0A4.009,4.009,0,0,0,99.01,263.9v1.144a1,1,0,0,0,2,0v-1.141a4,4,0,0,0-1-7.877,2,2,0,1,1,0-4.008Zm0,0" transform="translate(-83.975 -216.946)"/>
      <path id="Path_34" data-name="Path 34" d="M103.018,200.012H97.006a1,1,0,1,0,0,2h6.012a1,1,0,0,0,0-2Zm0,0" transform="translate(-83.975 -174.959)"/>
      <path id="Path_35" data-name="Path 35" d="M103.018,424.012H97.006a1,1,0,1,0,0,2h6.012a1,1,0,1,0,0-2Zm0,0" transform="translate(-83.975 -370.901)"/>
      <path id="Path_36" data-name="Path 36" d="M50.9,38.581,36.19,13.1a16.874,16.874,0,0,0,2.387-2.974c1.67-2.706,1.969-5.274.84-7.23-2.247-3.893-9.345-3.862-16.158.071a24.791,24.791,0,0,0-2.6,1.757l-.809-.918a5.076,5.076,0,0,0-7.616,0L1.275,16.223A5.075,5.075,0,0,0,0,19.584V51.106a9.029,9.029,0,0,0,9.018,9.018H23.051a9.028,9.028,0,0,0,9.018-9.018V19.584a5.064,5.064,0,0,0-.8-2.723h.008a24.477,24.477,0,0,0,3.4-2.371L49.165,39.583A7.014,7.014,0,0,1,46.6,49.166L34.45,56.181a6.953,6.953,0,0,1-1.7.693,1,1,0,1,0,.515,1.937,9.01,9.01,0,0,0,2.185-.895L47.6,50.9A9.018,9.018,0,0,0,50.9,38.581ZM30.065,51.106a7.022,7.022,0,0,1-7.014,7.014H9.022a7.023,7.023,0,0,1-7.014-7.014V19.584a3.076,3.076,0,0,1,.77-2.035L13.732,5.136a3.07,3.07,0,0,1,4.61,0l9.773,11.075A16.587,16.587,0,0,1,20.969,17.8a4.958,4.958,0,0,0,.078-.76,5.016,5.016,0,0,0-5.01-5.01.977.977,0,0,0-.321.065.991.991,0,0,0-1.087.765,5.6,5.6,0,0,0,.49,4.069,5.429,5.429,0,0,0,2.923,2.342,2.993,2.993,0,0,1-5.01-2.231,1,1,0,1,0-2,0,5,5,0,0,0,9.212,2.712,11.736,11.736,0,0,0,1.187.065,19.326,19.326,0,0,0,8.047-2.026,3.063,3.063,0,0,1,.592,1.8ZM19.043,17.037a2.991,2.991,0,0,1-.044.438,3.642,3.642,0,0,1-2.145-1.552,3.215,3.215,0,0,1-.381-1.849A3.006,3.006,0,0,1,19.043,17.037Zm11.23-1.92c-.1.058-.2.108-.3.164L21.986,6.229A22.73,22.73,0,0,1,24.26,4.711c5.645-3.261,11.791-3.629,13.42-.8.745,1.288.457,3.127-.809,5.176a14.346,14.346,0,0,1-1.723,2.221l-.01-.018a5.076,5.076,0,0,0-2.781-2.276L28.433,7.687a1,1,0,0,0-.638,1.9l3.924,1.32A3.079,3.079,0,0,1,33.4,12.283l.255.442a22.326,22.326,0,0,1-3.385,2.4Zm0,0" transform="translate(0 0)"/>
      <path id="Path_37" data-name="Path 37" d="M272.139,283.955a1,1,0,0,0,1.368.366l6.942-4.008a1,1,0,1,0-1-1.735l-6.942,4.008A1,1,0,0,0,272.139,283.955Zm0,0" transform="translate(-237.931 -243.564)"/>
      <path id="Path_38" data-name="Path 38" d="M282.267,326.524a1,1,0,0,0,1.368.367l8.678-5.01a1,1,0,0,0-1-1.736l-8.678,5.01A1,1,0,0,0,282.267,326.524Zm0,0" transform="translate(-246.791 -279.927)"/>
      <path id="Path_39" data-name="Path 39" d="M280.728,247.811a1,1,0,0,0,.5-.135l3.471-2a1,1,0,1,0-1-1.735l-3.471,2a1,1,0,0,0,.5,1.87Zm0,0" transform="translate(-244.686 -213.262)"/>
    </g>
  </g>
</svg>
