<svg xmlns="http://www.w3.org/2000/svg" width="108" height="108" viewBox="0 0 108 108">
  <g id="Group_105" data-name="Group 105" transform="translate(-191 -2665)">
    <circle id="Ellipse_11" data-name="Ellipse 11" cx="54" cy="54" r="54" transform="translate(191 2665)" fill="#c72121"/>
    <g id="online" transform="translate(212 2645.528)">
      <path id="Path_25" data-name="Path 25" d="M65.926,56.993a.98.98,0,0,0,.98-.98V50.066a3.6,3.6,0,0,0-3.594-3.594H3.594A3.6,3.6,0,0,0,0,50.066V88.02a3.6,3.6,0,0,0,3.594,3.594H25.076v7.659H22.118a.98.98,0,0,0,0,1.96H44.549a.98.98,0,1,0,0-1.96H41.59V91.613H63.313a3.6,3.6,0,0,0,3.594-3.594V60.5a.98.98,0,1,0-1.96,0V80.912H42.257a.98.98,0,1,0,0,1.96h22.69V88.02a1.635,1.635,0,0,1-1.633,1.633H3.594A1.635,1.635,0,0,1,1.96,88.02V82.872H37.512a.98.98,0,0,0,0-1.96H1.96V50.066a1.635,1.635,0,0,1,1.633-1.633H25.279v4.3l-5.713,7.783A3.323,3.323,0,0,1,18,61.679s-.731.267-.8.3a2.945,2.945,0,0,0-2.714-1.811h-4.4a2.944,2.944,0,0,0-2.94,2.94v2.119a.98.98,0,1,0,1.96,0V63.109a.981.981,0,0,1,.98-.98h4.4a.981.981,0,0,1,.98.98V75.176a.981.981,0,0,1-.98.98h-4.4a.981.981,0,0,1-.98-.98V69.859a.98.98,0,0,0-1.96,0v5.317a2.944,2.944,0,0,0,2.94,2.94h4.4a2.944,2.944,0,0,0,2.94-2.94V73.044h6.054a3.67,3.67,0,0,0,6.247,1.611,3.673,3.673,0,0,0,5.376,0,3.673,3.673,0,0,0,5.376,0,3.67,3.67,0,0,0,6.247-1.611h2.756v2.132a2.944,2.944,0,0,0,2.94,2.94h4.4a2.944,2.944,0,0,0,2.94-2.94V63.109a2.944,2.944,0,0,0-2.94-2.94h-4.4a2.944,2.944,0,0,0-2.94,2.94v2.038H46.834V59.235a6.111,6.111,0,0,0-1.987-4.5.874.874,0,0,1-.292-.64v-5.66H63.313a1.635,1.635,0,0,1,1.633,1.633v5.947A.98.98,0,0,0,65.926,56.993Zm-26.3,42.28H27.036V91.613H39.63ZM51.442,63.109a.981.981,0,0,1,.98-.98h4.4a.981.981,0,0,1,.98.98V75.176a.981.981,0,0,1-.98.98h-4.4a.981.981,0,0,1-.98-.98Zm-1.96,4v3.977H46.835V67.107Zm-32.057,0h5.945v3.977H17.425Zm26.1-10.927a4.147,4.147,0,0,1,1.348,3.055V72.157a1.708,1.708,0,0,1-3.285.658,1.207,1.207,0,0,0-2.223,0,1.708,1.708,0,0,1-3.153,0,1.207,1.207,0,0,0-2.223,0,1.708,1.708,0,0,1-3.153,0,1.207,1.207,0,0,0-2.223,0,1.708,1.708,0,0,1-3.285-.658V61.933a.98.98,0,0,0-1.96,0v1.684a8.632,8.632,0,0,1-4.892,1.53.755.755,0,0,1-.878-.728.73.73,0,0,1,.483-.686l.581-.208a5.277,5.277,0,0,0,2.483-1.852L27,53.7a1.233,1.233,0,0,0,.241-.735V48.432H42.6v5.66a2.838,2.838,0,0,0,.93,2.088Z"/>
    </g>
  </g>
</svg>
