<svg xmlns="http://www.w3.org/2000/svg" width="108" height="108" viewBox="0 0 108 108">
  <g id="Group_85" data-name="Group 85" transform="translate(-791 -2428)">
    <circle id="Ellipse_10" data-name="Ellipse 10" cx="54" cy="54" r="54" transform="translate(791 2428)" fill="#c72121"/>
    <g id="customer-service" transform="translate(815 2452)">
      <path id="Path_26" data-name="Path 26" d="M132.091,1.775H147.36a7.583,7.583,0,0,1,7.574,7.574V20.356H144.012a9.353,9.353,0,0,0-8.938,6.6.888.888,0,1,0,1.7.522,7.535,7.535,0,0,1,7.24-5.342h22.2a7.6,7.6,0,0,1,7.573,7.476.888.888,0,1,0,1.775-.021,9.342,9.342,0,0,0-9.348-9.23h-9.5V9.35A9.36,9.36,0,0,0,147.36,0H132.091a.888.888,0,0,0,0,1.775Zm0,0" transform="translate(-115.811)"/>
      <path id="Path_27" data-name="Path 27" d="M58.862,32.259a.888.888,0,0,0-.888.888V43.805A7.583,7.583,0,0,1,53.4,50.762c-1.919.832-1.089.618-25.195.618a7.583,7.583,0,0,1-7.574-7.574V30.725a.887.887,0,1,0-1.775,0v.3H9.35A7.584,7.584,0,0,1,1.775,23.45V9.35A7.583,7.583,0,0,1,9.35,1.775h3.38a.888.888,0,1,0,0-1.775H9.35A9.36,9.36,0,0,0,0,9.35v14.1a9.365,9.365,0,0,0,6.354,8.857v5.15a2.253,2.253,0,0,0,4.2,1.135L13.929,32.8h4.922V43.805A9.36,9.36,0,0,0,28.2,53.154h17.62L49.2,58.948a2.253,2.253,0,0,0,4.2-1.135v-5.15a9.365,9.365,0,0,0,6.354-8.857V33.147A.888.888,0,0,0,58.862,32.259ZM8.622,37.936a.469.469,0,0,1-.493-.478V32.719a27.425,27.425,0,0,0,3.744.081C8.781,38.1,8.977,37.936,8.622,37.936Zm43,19.876a.475.475,0,0,1-.888.24l-2.858-4.9a27.865,27.865,0,0,0,3.746-.08Zm0,0" transform="translate(0 0)"/>
      <path id="Path_28" data-name="Path 28" d="M43.66,114.485a3.363,3.363,0,1,0,3.364-3.364A3.367,3.367,0,0,0,43.66,114.485Zm4.952,0a1.588,1.588,0,1,1-1.588-1.588A1.59,1.59,0,0,1,48.612,114.485Zm0,0" transform="translate(-38.538 -98.085)"/>
      <path id="Path_29" data-name="Path 29" d="M152.364,114.485A3.364,3.364,0,1,0,149,117.848,3.367,3.367,0,0,0,152.364,114.485Zm-4.952,0A1.588,1.588,0,1,1,149,116.073,1.59,1.59,0,0,1,147.412,114.485Zm0,0" transform="translate(-128.551 -98.085)"/>
      <path id="Path_30" data-name="Path 30" d="M254.344,114.485a3.363,3.363,0,1,0-3.364,3.363A3.367,3.367,0,0,0,254.344,114.485Zm-4.952,0a1.588,1.588,0,1,1,1.588,1.588A1.59,1.59,0,0,1,249.392,114.485Zm0,0" transform="translate(-218.568 -98.085)"/>
      <path id="Path_31" data-name="Path 31" d="M303.8,364.469a3.5,3.5,0,0,0,0,6.994,3.5,3.5,0,0,0,0-6.994Zm0,5.219a1.722,1.722,0,0,1,0-3.444,1.722,1.722,0,0,1,0,3.444Zm0,0" transform="translate(-265.095 -321.711)"/>
      <path id="Path_32" data-name="Path 32" d="M286.922,210.909a.887.887,0,0,0,1.123-.56,6.009,6.009,0,0,0,.315-1.91c0-6.005-8.588-7.657-12.512-4.319a4.707,4.707,0,0,0-1.785,3.434,2.943,2.943,0,0,0,3.012,2.926,2.642,2.642,0,0,0,2.3-1.411,1.406,1.406,0,0,1,1.528-.786c.381,0,1.268.062,1.268.64,0,.8-1.23,1.512-2.088,2.239a6.518,6.518,0,0,0-2.363,5.321c0,.795,0,3.212,2.869,3.212,2.2,0,2.983-1.33,2.983-2.47,0-2.306.476-1.8,2.311-3.6a.888.888,0,0,0-1.244-1.266,12.362,12.362,0,0,1-1.063.923c-3.373,2.638-.34,4.635-2.988,4.635-.81,0-1.094-.117-1.094-1.436a4.9,4.9,0,0,1,2.29-4.408c.911-.7,2.16-1.658,2.16-3.153,0-1.467-1.194-2.415-3.043-2.415a3.1,3.1,0,0,0-3,1.565c-.324.478-.46.632-.826.632-2.466,0-1.244-4.5,3.909-4.5,4.252,0,6.317,2.772,5.379,5.58A.887.887,0,0,0,286.922,210.909Zm0,0" transform="translate(-241.911 -178.673)"/>
    </g>
  </g>
</svg>
