<svg id="Group_72" data-name="Group 72" xmlns="http://www.w3.org/2000/svg" xmlns:xlink="http://www.w3.org/1999/xlink" width="80.881" height="122.458" viewBox="0 0 80.881 122.458">
  <defs>
    <clipPath id="clip-path">
      <rect id="Rectangle_64" data-name="Rectangle 64" width="80.881" height="122.458" transform="translate(0 0)"/>
    </clipPath>
  </defs>
  <g id="Group_73" data-name="Group 73" transform="translate(0 0)" clip-path="url(#clip-path)">
    <path id="Path_59" data-name="Path 59" d="M49.9,53.454c1.816-1.547,4.07-2.355,5.853-4.07a21.2,21.2,0,0,0,3.969-6.426,24.649,24.649,0,0,0,1.481-4.2c.168-.706,0-.639-1.178-.37a25.617,25.617,0,0,1-3.026.539,44.159,44.159,0,0,0,5.651-2.187,28.936,28.936,0,0,0,7.872-6.054,82.421,82.421,0,0,0,7.535-9.15c1.816-2.59,2.556-4.1,2.759-5.247.234-1.144-.035-1.917-2.018-4.44-1.952-2.556-5.619-6.9-8.982-9.218A15.321,15.321,0,0,0,60.224,0c-3.095.033-6.189.4-7.837,1.212s-1.816,2.05-1.547,3.6c.235,1.58.908,3.532,1.816,4.238.908.674,2.085.135,2.759-.235.706-.337.908-.47.773-.639-.1-.135-.538-.337-.874-.639-.337-.337-.606-.807-.471-.807a14.909,14.909,0,0,0,1.547.807,6.621,6.621,0,0,0,3.262.337A8.659,8.659,0,0,0,62.074,6.8a1.278,1.278,0,0,1,1.614.168,5.026,5.026,0,0,1,1.446,2.993c.237,1.582.068,3.869.337,5.416A3.483,3.483,0,0,0,67.39,18.3a8.223,8.223,0,0,0,3.8.571c1.313-.1,2.455-.437,2.657-.4s-.572.4-1.816.706a11.218,11.218,0,0,1-4.239.2,8.048,8.048,0,0,1-2.859-1.413c-.606-.37-.976-.37-1.985,0a20.053,20.053,0,0,0-3.936,1.917,29.177,29.177,0,0,0-2.388,2.086c-.5.336-.808.168-1.547-.035a9.568,9.568,0,0,0-3.127-.3,6.752,6.752,0,0,0-.808.134c-.033-.336-.033-.639-.068-.908-.067-.841-.134-1.177-.034-1.245.068-.1.3.134.539.5.2.37.437.908.5.538a11.638,11.638,0,0,0-.5-3.5A20.341,20.341,0,0,0,49.224,11.3a14.587,14.587,0,0,0-2.994-3.1c-.538-.5-.37-.639.337-.5.672.1,1.85.437,1.75.168a8.838,8.838,0,0,0-2.726-1.816,15.287,15.287,0,0,0-3.632-1.346,8.686,8.686,0,0,0-1.783-.2c-.1-.035.337-.136.976-.27.6-.134,1.413-.269,1.446-.437.035-.134-.706-.3-2.018-.37a32.921,32.921,0,0,0-4.776.1,22.109,22.109,0,0,0-3.6.807c-.674.2-.707.2-.538-.033.2-.2.6-.606.941-.908.369-.3.707-.506.437-.438a19.135,19.135,0,0,0-2.118.875,15.274,15.274,0,0,0-3.2,1.952,4.461,4.461,0,0,0-1.447,2.017c-.2.606-.236,1.077-.3,1.211s-.2-.068-.269-.471c-.034-.37-.034-.908-.034-1.278s.034-.606-.2-.37a8.5,8.5,0,0,0-.942,1.615,4.773,4.773,0,0,0-.438,1.951c-.068,1.447-1.043,5.652-1.884,6.695a10.167,10.167,0,0,0-1.244,1.951,2.173,2.173,0,0,0-.3.976,1.15,1.15,0,0,0,.135.538c.1.169.169.3.27.269.1,0,.234-.168.4-.337a6.124,6.124,0,0,1,.808-.672,5.736,5.736,0,0,1,.941-.47c.1-.035-.168.168-.5.5a6.45,6.45,0,0,0-.909,1.077.6.6,0,0,0,0,.74,3.7,3.7,0,0,0,.672.908,2.071,2.071,0,0,0,1.11.571,4.878,4.878,0,0,0,1.683-.1c.6-.1,1.177-.3,1.581-.336a.7.7,0,0,1,.773.4c.135.269.1.337-.068.471-.134.134-.571,0-1.109-.1a6.411,6.411,0,0,0-1.784-.1c-.571.068-.975.2-1.143.471-.168.236.033.976.336,1.917a9.339,9.339,0,0,0,.573,1.447c.6,1.547,3.3,1.31,3.4,1.849.067.3-1.11,1.077-2.221,2.186a6,6,0,0,0-.674.269,9.332,9.332,0,0,0-3.161,2.96,21.12,21.12,0,0,0-1.211,2.018,4.75,4.75,0,0,1-.84,1.245c-.1,0,.1-.639.337-1.077.2-.47.437-.706-.2-.84a18.3,18.3,0,0,0-3.532.068,12.748,12.748,0,0,0-3.969.873A5.607,5.607,0,0,0,9.666,39.46c-.774,1.379-1.514,3.365-1.615,3.431A20.507,20.507,0,0,1,9.061,39.83c.471-1.245.875-1.817,1.044-2.422a3.866,3.866,0,0,0,0-2.153c-.237-.942-.674-2.22-1.009-3.2a10.637,10.637,0,0,1-.572-2.691,13.437,13.437,0,0,1,.168-3.162c.2-.74.538-.875.908-.842a3.008,3.008,0,0,0,1.582.1,7.483,7.483,0,0,0,2.825-1.311,2.271,2.271,0,0,0,.74-1.783c.067-.74.269-1.716.269-2.355-.034-.639-.269-.941-1.11-1.345s-2.321-.943-3.128-1.245c-.841-.3-1.009-.37-1.514-.134a14.939,14.939,0,0,0-2.287,1.514,22.418,22.418,0,0,0-2.759,2.388,4.489,4.489,0,0,0-1.043,2.591c-.235,1.312-.538,3.4-1.143,5.752a70.082,70.082,0,0,0-1.85,7.805,26.125,26.125,0,0,0,.236,7.77c.437,1.917,1.109,2.69,1.883,2.96s1.648.067,3.9.3,5.921.908,8.778,1.009a16.615,16.615,0,0,0,5.82-.774c.909-.337.64-.471.4-.84a5.308,5.308,0,0,1-.6-1.648c-.136-.607-.136-1.178.033-.976a11.276,11.276,0,0,0,.976,1.917,6.073,6.073,0,0,0,1.917,1.346,1.209,1.209,0,0,1,.74,1.446c-.068.908-.539,2.422-.607,3.7a7.585,7.585,0,0,0,.539,3.128c.337.841.639,1.481.672,1.648,0,.168-.3-.134-.5-.336-.2-.236-.3-.337-.47.3a17.489,17.489,0,0,1-.808,3.162c-.5,1.11-1.312,1.95,2.792,1.917,4.07,0,13.051-.875,18.366-1.413,5.315-.571,6.963-.774,7.5-1.178.571-.369,0-.908-.4-1.748a12.816,12.816,0,0,1-.706-2.759c-.134-.807-.2-1.278-.74-1.109a8.481,8.481,0,0,0-2.288,1.782c-.84.842-1.58,1.683-1.278,1.009A15.989,15.989,0,0,1,49.9,53.454M46.13,23.516a3.422,3.422,0,0,1-.909-.5,2.856,2.856,0,0,0-.739-.5c.908-.5,1.043-.068,1.648,1.009m-14.6,3.363a13.113,13.113,0,0,0,2.019-2.59,12,12,0,0,0,1.715-5.046,8.375,8.375,0,0,0-.908-4.2,3.255,3.255,0,0,0-1.041-1.346c-.3-.235-.607-.4-.607-.47a4.425,4.425,0,0,1,.74,0,3.184,3.184,0,0,0,1.547-.3,2.38,2.38,0,0,0,1.044-1.178,2.443,2.443,0,0,0,.235-1.346c-.067-.4-.269-.739-.639-.772a2.178,2.178,0,0,0-1.244.5c-.4.269-.673.506-.606.4a2.743,2.743,0,0,1,.908-.908,3.874,3.874,0,0,1,1.48-.506,1.1,1.1,0,0,1,.942.237c.168.2.168.5,0,1.177a8.021,8.021,0,0,1-.841,2.253A5.368,5.368,0,0,1,35.2,14.1c-.2.269-.134.37.067.639a8.252,8.252,0,0,1,.876,1.244,7.76,7.76,0,0,1,.706,1.985c.134.672.134,1.311.033,1.311s-.269-.639-.47-1.109-.437-.774-.471-.673c-.067.1.067.571,0,1.581a8.817,8.817,0,0,1-1.11,4A16.291,16.291,0,0,1,31.9,26.745c-.74.707-.74.571-.37.134M25.443,15.812c0-.1.235-.269.437-.5a4.271,4.271,0,0,0,.538-.875,1.937,1.937,0,0,1,.573-.942,1.691,1.691,0,0,1,1.143-.235c.337.035.606.168.571.2s-.37-.034-.6,0a.426.426,0,0,0-.471.3,1.648,1.648,0,0,0,.135.639,1.46,1.46,0,0,1,.068.774,1.248,1.248,0,0,1-.572.841,2.087,2.087,0,0,1-.908-.068,1.274,1.274,0,0,0-.5,0c-.169,0-.4-.033-.4-.134" transform="translate(-0.001 0)" fill-rule="evenodd"/>
    <path id="Path_60" data-name="Path 60" d="M60.087,716.867V712.5l-1,.167v4.364l-4.1.682V707.528c0-.986.69-1.594,2.049-1.82l5.1-.849c1.359-.226,2.049.152,2.049,1.138v10.188Zm0-8.709a.034.034,0,0,0-.039-.03l-.926.154a.05.05,0,0,0-.039.043v1.424l1-.167Z" transform="translate(-46.439 -595.258)"/>
    <path id="Path_61" data-name="Path 61" d="M125.747,705.945v-8.709a.033.033,0,0,0-.039-.03l-.926.154a.051.051,0,0,0-.039.043v8.709l-4.1.682V695.127l4.1-.682v.748a6.075,6.075,0,0,1,3.054-1.256c1.359-.226,2.049.152,2.049,1.138v10.188Z" transform="translate(-101.895 -586.034)"/>
    <path id="Path_62" data-name="Path 62" d="M186.3,695.872V684.2l7.151-1.19c1.359-.226,2.049.152,2.049,1.138V692.9c0,.968-.689,1.557-2.049,1.783Zm5.1-9.558a.033.033,0,0,0-.039-.03l-.965.161v5.843l.965-.161a.051.051,0,0,0,.039-.043Z" transform="translate(-157.349 -576.809)"/>
    <path id="Path_63" data-name="Path 63" d="M279.978,680.155V669.967c0-.967.69-1.594,2.049-1.82l5.634-.937v2.921l-3.546.59a.051.051,0,0,0-.039.043v.676l3.546-.59v2.921l-3.546.59v5.112Z" transform="translate(-236.465 -563.514)"/>
    <path id="Path_64" data-name="Path 64" d="M339.711,670.356v-4.638a.033.033,0,0,0-.039-.03l-.965.161v4.674l-4.1.682V659.538l7.151-1.19c1.359-.226,2.029.155,2.029,1.141v3.4c0,.566-.335.932-1,1.117.689-.023,1.024.231,1.024.8v4.875Zm0-8.709a.033.033,0,0,0-.039-.03l-.965.161v1.753l.965-.161a.05.05,0,0,0,.039-.043Z" transform="translate(-282.605 -555.976)"/>
    <path id="Path_65" data-name="Path 65" d="M400.269,660.822V649.155L407.2,648v2.921l-2.837.472v1.461l2.8-.465v2.921l-2.8.465v1.461l2.857-.475v2.9Z" transform="translate(-338.06 -547.29)"/>
    <path id="Path_66" data-name="Path 66" d="M451.352,652.324V640.658l6.934-1.154v2.921l-2.837.472v1.461l2.8-.465v2.921l-2.8.465v1.461l2.857-.475v2.9Z" transform="translate(-381.204 -540.114)"/>
    <path id="Path_67" data-name="Path 67" d="M32.926,465.715l-.968-5.358-.986,5.684-4.858.808-1.936-10.7,3.983-.663.986,6.028.968-6.353,3.852-.641.949,6.034L35.9,454.2l3.741-.622L37.709,464.92Z" transform="translate(-20.421 -383.083)"/>
    <path id="Path_68" data-name="Path 68" d="M128.856,457.306c-1.284.214-1.936-.126-1.936-1.041V448c0-.931.652-1.505,1.936-1.719l4.82-.8c1.284-.214,1.936.144,1.936,1.075v8.262c0,.914-.651,1.471-1.936,1.685Zm2.885-8.707a.032.032,0,0,0-.037-.028l-.875.145a.048.048,0,0,0-.037.041v5.45a.031.031,0,0,0,.037.028l.875-.145a.048.048,0,0,0,.037-.041Z" transform="translate(-107.194 -376.196)"/>
    <path id="Path_69" data-name="Path 69" d="M193.651,446.53v-4.381a.032.032,0,0,0-.037-.028l-.912.152v4.415l-3.871.644V436.311l6.756-1.124c1.284-.214,1.917.147,1.917,1.078v3.208c0,.535-.316.88-.949,1.055.652-.022.968.219.968.753v4.605Zm0-8.227a.032.032,0,0,0-.037-.028l-.912.152v1.656l.912-.152a.048.048,0,0,0,.037-.041Z" transform="translate(-159.483 -367.501)"/>
    <path id="Path_70" data-name="Path 70" d="M255.865,434.5l-1.266-2.739v2.95l-3.741.622V424.314l3.741-.622V426.5l1.154-3,4.076-.678-2.662,5.755,2.773,5.248Z" transform="translate(-211.871 -357.108)"/>
    <path id="Path_71" data-name="Path 71" d="M313.865,426.531c-1.284.214-1.936-.126-1.936-1.041v-8.262c0-.931.651-1.506,1.936-1.719l4.82-.8c1.284-.214,1.936.144,1.936,1.075v8.262c0,.914-.651,1.471-1.936,1.685Zm2.885-8.707a.032.032,0,0,0-.037-.028l-.875.145a.048.048,0,0,0-.037.041v5.45a.031.031,0,0,0,.037.028l.875-.145a.048.048,0,0,0,.037-.041Z" transform="translate(-263.45 -350.204)"/>
    <path id="Path_72" data-name="Path 72" d="M375.655,414.829c-1.284.214-1.936-.127-1.936-1.041V404.13l3.871-.644v8.244a.032.032,0,0,0,.037.028l.875-.145a.048.048,0,0,0,.037-.041v-8.244l3.871-.644v9.659c0,.914-.652,1.471-1.936,1.685Z" transform="translate(-315.637 -340.1)"/>
    <path id="Path_73" data-name="Path 73" d="M436.238,407.737c-1.284.214-1.936-.127-1.936-1.041V400.47l-.949.158V397.9l.949-.158v-.707l3.871-.644v.707l4.82-.8v2.725l-4.82.8v4.812a.032.032,0,0,0,.037.028l.893-.149a.048.048,0,0,0,.037-.041v-4.105l3.853-.641v5.519c0,.914-.652,1.471-1.936,1.685Z" transform="translate(-366.002 -334.707)"/>
    <path id="Path_74" data-name="Path 74" d="M45.01,551.569l-1.921-10.638L41.13,552.214l-9.644,1.6-3.843-21.243,7.907-1.315,1.958,11.968,1.921-12.613,7.649-1.272,1.885,11.98L50.922,528.7l7.427-1.235L54.506,549.99Z" transform="translate(-23.347 -445.491)"/>
    <path id="Path_75" data-name="Path 75" d="M232.1,541.256V519.374l7.686-1.279v21.882Z" transform="translate(-196.029 -437.574)"/>
    <path id="Path_76" data-name="Path 76" d="M293.914,530.974V509.092l7.686-1.279v16.437l4.988-.83v5.445Z" transform="translate(-248.235 -428.89)"/>
    <path id="Path_77" data-name="Path 77" d="M385.206,509.965V488.083l13.413-2.231c2.549-.424,3.843.285,3.843,2.135v16.4c0,1.815-1.293,2.92-3.843,3.344Zm9.57-17.926a.063.063,0,0,0-.074-.056l-1.81.3v10.958l1.81-.3a.1.1,0,0,0,.074-.081Z" transform="translate(-325.338 -410.242)"/>
  </g>
</svg>
